<?xml version="1.0" encoding="UTF-8" standalone="no"?>
<!-- Created with Inkscape (http://www.inkscape.org/) -->

<svg
   width="66.998215cm"
   height="67.709007cm"
   viewBox="0 0 669.98215 677.09007"
   version="1.1"
   id="svg1"
   xml:space="preserve"
   xmlns="http://www.w3.org/2000/svg"
   xmlns:svg="http://www.w3.org/2000/svg"><defs
     id="defs1"><clipPath
       clipPathUnits="userSpaceOnUse"
       id="clipPath628"><g
         id="g631"
         transform="matrix(2.8334798,0,0,2.8335474,-6.9827319,-9.9276434)"><g
           id="g630"><g
             id="g629"
             transform="matrix(1.0004115,0,0,1.0003876,-12.706239,-4.2363556)"><path
               d="M 15.164366,7.7975999 H 1214.7852 V 1357.4041 H 15.164366 Z m 0,0"
               clip-rule="nonzero"
               id="path628"
               style="stroke-width:0.352778" /></g></g></g></clipPath></defs><g
     id="layer1"
     style="display:inline"
     transform="translate(-264.94345,-184.72017)"><g
       clip-path="url(#clipPath628)"
       id="g7"
       transform="matrix(0.35292293,0,0,0.35291451,0.00481503,-0.05107527)"
       style="fill:#390000;fill-opacity:1"><path
         fill="#390000"
         d="M 0,0.171875 H 3400.1758 V 3825.4609 H 0 Z m 0,0"
         fill-opacity="1"
         fill-rule="nonzero"
         id="path7-3"
         style="fill:#5a0606;fill-opacity:1" /></g><path
       style="fill:#fac124;fill-opacity:1;stroke-width:3.74469"
       d="m 281.79965,861.26117 c -4.36068,-0.72342 -12.36907,-4.35052 -16.08978,-7.28637 -1.9742,-1.55782 -1.27395,-9.57743 16.18265,-185.3967 3.78774,-38.14485 12.0253,-123.07952 18.30589,-188.74368 25.50091,-266.60689 26.98381,-279.49684 32.84087,-285.49507 13.96468,-14.30132 41.15819,-12.49377 65.3159,4.34158 15.14051,10.55141 17.78463,11.17078 32.12938,7.5257 28.21096,-7.16846 42.5385,0.34451 58.46126,30.65697 1.79445,3.4159 4.96096,7.74513 7.03701,9.62047 3.92481,3.54585 5.94207,4.25321 24.98341,8.75919 27.39011,6.48205 34.82144,14.32717 36.59529,38.6354 1.70347,23.34661 4.58275,28.53562 20.36584,36.70427 21.79144,11.27824 24.60295,18.20665 25.78627,63.54879 0.87064,33.35015 0.29583,31.54184 15.42548,48.53184 19.96104,22.41606 20.692,28.882 6.65206,58.84434 -11.69428,24.95682 -14.66419,36.92296 -13.66698,55.0682 0.58904,10.72103 1.64654,15.7434 7.09993,33.73024 7.17368,23.66041 2.82199,33.84183 -22.77929,53.29771 -15.13377,11.50067 -15.34047,11.99123 -18.36019,43.59823 -3.05229,31.94552 -11.273,43.5619 -35.23335,49.78744 -21.4548,5.57434 -27.85895,11.71862 -36.97276,35.47302 -11.19324,29.17408 -18.99155,34.97761 -46.45169,34.57125 -20.54333,-0.30332 -19.7356,-0.60168 -32.90565,12.13431 -21.7364,21.02002 -45.84654,25.9495 -70.19298,14.35114 -12.13914,-5.78334 -13.43256,-5.39979 -31.85752,9.44372 -20.59913,16.59572 -29.61896,20.46322 -42.67105,18.29801 z m 108.4805,-38.025 c 5.14856,-2.151 10.83449,-7.83316 22.55984,-22.54409 13.87218,-17.40423 13.15694,-17.0795 35.54791,-16.13215 25.41405,1.07508 28.66968,-1.07806 38.69607,-25.59381 11.34826,-27.7477 18.9833,-35.47261 42.39469,-42.89495 23.86262,-7.56538 29.23811,-15.73142 27.02463,-41.05297 -2.16855,-24.80816 2.53178,-34.11481 24.97592,-49.45154 16.95818,-11.58831 18.42871,-13.88416 18.42871,-28.7749 0,-12.09271 -1.06386,-13.86432 -9.00372,-14.99147 -19.20011,-2.72651 -20.9691,-1.27843 -30.57384,25.02423 -20.1142,55.08392 -47.38523,95.29283 -87.73794,129.36272 -40.92304,34.55181 -102.23174,60.43286 -123.66931,52.20653 -4.28504,-1.64432 -8.60041,8.63783 -7.0636,16.83013 0.86016,4.5853 1.41287,4.96651 15.56628,10.73638 21.98204,8.96134 26.4517,9.95105 32.85436,7.27589 z m -20.23328,-67.81441 c 210.24939,-72.53223 235.01973,-377.08475 39.05705,-480.20848 -7.96045,-4.1888 -14.81022,-7.23472 -15.22177,-6.76813 -0.41154,0.46658 -1.28667,13.33219 -1.94461,28.59028 -2.08654,48.36858 -5.99224,99.32774 -11.01012,143.6633 -5.00964,44.26029 -9.42125,85.98993 -15.81605,149.60761 -8.08514,80.43356 -11.99235,115.98671 -15.40712,140.18823 -4.45581,31.57962 -3.24439,33.06442 20.34262,24.92719 z m 130.30826,-238.2622 c -2.29213,-3.49866 -3.29458,-10.85435 -4.95198,-36.3343 -2.49508,-38.36054 -3.02233,-40.37668 -19.82173,-75.79464 -17.83106,-37.59438 -19.04471,-42.10823 -11.32168,-42.10823 20.37146,0 50.44838,77.37267 50.83858,130.78309 0.15353,20.96686 -7.93836,33.83921 -14.74319,23.45408 z M 444.85068,356.11569 c -5.72189,-2.61192 -17.33864,-15.22065 -17.33864,-18.81892 0,-8.03459 9.91929,-7.81478 19.72662,0.43776 10.62067,8.93669 8.73409,23.4582 -2.38798,18.38116 z m 458.73165,402.14646 c -2.17979,-0.48415 -6.58726,-1.79822 -9.79426,-2.91939 -7.40025,-2.58717 -18.93307,-4.56436 -37.76328,-6.47453 -30.33378,-3.07663 -30.85841,-3.26461 -43.81946,-15.68236 -11.89578,-11.39731 -16.17596,-13.66098 -32.28072,-17.07201 -22.69728,-4.80743 -24.23372,-6.39592 -33.40708,-34.53909 -5.68218,-17.43188 -8.65358,-21.98766 -16.99898,-26.06075 -2.35205,-1.1485 -7.69945,-3.73495 -11.88264,-5.74847 -20.03181,-9.64181 -22.07229,-14.7387 -20.63171,-51.53284 0.59316,-15.14986 -2.67333,-20.96761 -17.11657,-30.48697 -24.37116,-16.0632 -27.34668,-33.85344 -12.07024,-72.16193 7.46203,-18.71144 7.36841,-20.92903 -1.33348,-31.60176 -13.68345,-16.78218 -9.16549,-33.81525 16.15419,-60.90241 14.60464,-15.62358 15.45468,-17.40379 16.50094,-34.54546 1.69672,-27.80091 7.01754,-37.70035 25.83982,-48.07612 12.10319,-6.67228 16.37551,-12.1721 20.11719,-25.89974 6.2379,-22.88488 13.64301,-30.07842 32.16159,-31.24077 18.96421,-1.19006 23.10096,-3.37733 32.58772,-17.22817 13.19817,-19.26977 21.35522,-22.16179 43.62937,-15.46816 12.03052,3.61512 16.98469,3.36272 26.75987,-1.36456 20.02881,-9.68563 50.99624,-9.62646 53.01381,0.1011 3.61214,17.41427 0.81935,505.86635 -2.99195,523.28062 -1.09349,4.99693 -15.66856,8.06938 -26.67413,5.62339 z m -57.28168,-31.72347 c 8.46897,-16.96004 8.4053,-17.11769 -10.84988,-26.81418 -51.63431,-26.00121 -87.44135,-69.27103 -109.35337,-132.14241 -11.22356,-32.20427 -23.04927,-22.21758 -13.2749,11.21047 3.44436,11.77965 3.68289,16.88553 1.32449,28.34276 -2.98826,14.51664 0.84517,20.41714 19.70565,30.33269 19.43341,10.217 25.45674,18.42384 29.79982,40.60211 3.79673,19.38885 5.26653,20.67028 24.99913,21.79256 18.58974,1.0575 24.45687,3.78812 32.57053,15.15811 8.99585,12.60685 21.63638,18.41224 25.07853,11.51789 z m 8.63859,-73.07001 c 0.34829,-15.12178 1.29639,-71.63355 2.10377,-125.58135 0.80776,-53.94816 1.91313,-117.25915 2.45647,-140.69076 2.30078,-99.20604 2.34454,-98.95215 -15.30821,-88.63629 -132.04619,77.16332 -142.14672,271.62401 -18.90652,364.0005 7.09235,5.31594 27.25711,18.37965 28.39325,18.39426 0.34455,0 0.91182,-12.36457 1.26124,-27.48636 z M 764.44933,479.20531 c -5.85669,-7.44555 4.07871,-56.25751 16.32195,-80.18828 10.34693,-20.22466 28.65657,-45.04443 33.19402,-44.9965 7.72152,0.0824 5.12462,8.75433 -8.68843,29.01831 -14.61887,21.4458 -22.28312,41.74123 -27.0119,71.53058 -3.73832,23.54956 -8.28811,31.66279 -13.81564,24.63589 z M 826.97544,347.7804 c -4.19671,-5.05683 -2.67554,-11.48308 4.42364,-18.69085 6.73031,-6.83292 13.02846,-6.62135 15.57675,0.52313 2.26254,6.34387 -16.02574,22.95678 -20.00039,18.16772 z"
       id="path72" /></g></svg>
